<?xml version="1.0" encoding="UTF-8" standalone="no"?>
<!DOCTYPE svg PUBLIC "-//W3C//DTD SVG 1.1//EN"
 "http://www.w3.org/Graphics/SVG/1.1/DTD/svg11.dtd">
<!-- Generated by graphviz version 4.0.0 (20220529.0937)
 -->
<!-- Pages: 1 -->
<svg width="530pt" height="548pt"
 viewBox="0.00 0.00 530.00 548.00" xmlns="http://www.w3.org/2000/svg" xmlns:xlink="http://www.w3.org/1999/xlink">
<g id="graph0" class="graph" transform="scale(1 1) rotate(0) translate(4 544)">
<polygon fill="white" stroke="transparent" points="-4,4 -4,-544 526,-544 526,4 -4,4"/>
<!-- __main__.Node object at 0x00000159411853D0 -->
<g id="node1" class="node">
<title>__main__.Node object at 0x00000159411853D0</title>
<ellipse fill="none" stroke="black" cx="261" cy="-522" rx="27" ry="18"/>
<text text-anchor="middle" x="261" y="-518.3" font-family="Times New Roman,serif" font-size="14.00">m</text>
</g>
<!-- __main__.Node object at 0x00000159411857C0 -->
<g id="node2" class="node">
<title>__main__.Node object at 0x00000159411857C0</title>
<ellipse fill="none" stroke="black" cx="261" cy="-450" rx="27" ry="18"/>
<text text-anchor="middle" x="261" y="-446.3" font-family="Times New Roman,serif" font-size="14.00">r</text>
</g>
<!-- __main__.Node object at 0x00000159411853D0&#45;&gt;__main__.Node object at 0x00000159411857C0 -->
<g id="edge1" class="edge">
<title>__main__.Node object at 0x00000159411853D0&#45;&gt;__main__.Node object at 0x00000159411857C0</title>
<path fill="none" stroke="black" d="M261,-503.7C261,-495.98 261,-486.71 261,-478.11"/>
<polygon fill="black" stroke="black" points="264.5,-478.1 261,-468.1 257.5,-478.1 264.5,-478.1"/>
</g>
<!-- __main__.Node object at 0x00000159411839A0 -->
<g id="node3" class="node">
<title>__main__.Node object at 0x00000159411839A0</title>
<ellipse fill="none" stroke="black" cx="189" cy="-378" rx="27" ry="18"/>
<text text-anchor="middle" x="189" y="-374.3" font-family="Times New Roman,serif" font-size="14.00">j</text>
</g>
<!-- __main__.Node object at 0x00000159411857C0&#45;&gt;__main__.Node object at 0x00000159411839A0 -->
<g id="edge2" class="edge">
<title>__main__.Node object at 0x00000159411857C0&#45;&gt;__main__.Node object at 0x00000159411839A0</title>
<path fill="none" stroke="black" d="M246.43,-434.83C236.25,-424.94 222.48,-411.55 210.97,-400.36"/>
<polygon fill="black" stroke="black" points="213.41,-397.85 203.8,-393.38 208.53,-402.87 213.41,-397.85"/>
</g>
<!-- __main__.Node object at 0x000001594116DA00 -->
<g id="node13" class="node">
<title>__main__.Node object at 0x000001594116DA00</title>
<ellipse fill="none" stroke="black" cx="315" cy="-378" rx="27" ry="18"/>
<text text-anchor="middle" x="315" y="-374.3" font-family="Times New Roman,serif" font-size="14.00">p</text>
</g>
<!-- __main__.Node object at 0x00000159411857C0&#45;&gt;__main__.Node object at 0x000001594116DA00 -->
<g id="edge12" class="edge">
<title>__main__.Node object at 0x00000159411857C0&#45;&gt;__main__.Node object at 0x000001594116DA00</title>
<path fill="none" stroke="black" d="M272.98,-433.46C279.98,-424.4 288.94,-412.79 296.79,-402.61"/>
<polygon fill="black" stroke="black" points="299.71,-404.55 303.05,-394.49 294.17,-400.27 299.71,-404.55"/>
</g>
<!-- __main__.Node object at 0x0000015941183100 -->
<g id="node4" class="node">
<title>__main__.Node object at 0x0000015941183100</title>
<ellipse fill="none" stroke="black" cx="81" cy="-306" rx="27" ry="18"/>
<text text-anchor="middle" x="81" y="-302.3" font-family="Times New Roman,serif" font-size="14.00">o</text>
</g>
<!-- __main__.Node object at 0x00000159411839A0&#45;&gt;__main__.Node object at 0x0000015941183100 -->
<g id="edge3" class="edge">
<title>__main__.Node object at 0x00000159411839A0&#45;&gt;__main__.Node object at 0x0000015941183100</title>
<path fill="none" stroke="black" d="M170.19,-364.81C153,-353.67 127.38,-337.06 108.01,-324.5"/>
<polygon fill="black" stroke="black" points="109.89,-321.56 99.6,-319.05 106.08,-327.43 109.89,-321.56"/>
</g>
<!-- __main__.Node object at 0x0000015941183310 -->
<g id="node9" class="node">
<title>__main__.Node object at 0x0000015941183310</title>
<ellipse fill="none" stroke="black" cx="189" cy="-306" rx="27" ry="18"/>
<text text-anchor="middle" x="189" y="-302.3" font-family="Times New Roman,serif" font-size="14.00">q</text>
</g>
<!-- __main__.Node object at 0x00000159411839A0&#45;&gt;__main__.Node object at 0x0000015941183310 -->
<g id="edge8" class="edge">
<title>__main__.Node object at 0x00000159411839A0&#45;&gt;__main__.Node object at 0x0000015941183310</title>
<path fill="none" stroke="black" d="M189,-359.7C189,-351.98 189,-342.71 189,-334.11"/>
<polygon fill="black" stroke="black" points="192.5,-334.1 189,-324.1 185.5,-334.1 192.5,-334.1"/>
</g>
<!-- __main__.Node object at 0x00000159411835B0 -->
<g id="node5" class="node">
<title>__main__.Node object at 0x00000159411835B0</title>
<ellipse fill="none" stroke="black" cx="63" cy="-234" rx="27" ry="18"/>
<text text-anchor="middle" x="63" y="-230.3" font-family="Times New Roman,serif" font-size="14.00">c</text>
</g>
<!-- __main__.Node object at 0x0000015941183100&#45;&gt;__main__.Node object at 0x00000159411835B0 -->
<g id="edge4" class="edge">
<title>__main__.Node object at 0x0000015941183100&#45;&gt;__main__.Node object at 0x00000159411835B0</title>
<path fill="none" stroke="black" d="M76.64,-288.05C74.61,-280.14 72.14,-270.54 69.86,-261.69"/>
<polygon fill="black" stroke="black" points="73.2,-260.6 67.32,-251.79 66.42,-262.35 73.2,-260.6"/>
</g>
<!-- __main__.Node object at 0x00000159411832E0 -->
<g id="node6" class="node">
<title>__main__.Node object at 0x00000159411832E0</title>
<ellipse fill="none" stroke="black" cx="27" cy="-162" rx="27" ry="18"/>
<text text-anchor="middle" x="27" y="-158.3" font-family="Times New Roman,serif" font-size="14.00">k</text>
</g>
<!-- __main__.Node object at 0x00000159411835B0&#45;&gt;__main__.Node object at 0x00000159411832E0 -->
<g id="edge5" class="edge">
<title>__main__.Node object at 0x00000159411835B0&#45;&gt;__main__.Node object at 0x00000159411832E0</title>
<path fill="none" stroke="black" d="M54.65,-216.76C50.29,-208.28 44.85,-197.71 39.96,-188.2"/>
<polygon fill="black" stroke="black" points="42.99,-186.44 35.3,-179.15 36.77,-189.64 42.99,-186.44"/>
</g>
<!-- __main__.Node object at 0x0000015941183280 -->
<g id="node7" class="node">
<title>__main__.Node object at 0x0000015941183280</title>
<ellipse fill="none" stroke="black" cx="99" cy="-162" rx="27" ry="18"/>
<text text-anchor="middle" x="99" y="-158.3" font-family="Times New Roman,serif" font-size="14.00">t</text>
</g>
<!-- __main__.Node object at 0x00000159411835B0&#45;&gt;__main__.Node object at 0x0000015941183280 -->
<g id="edge6" class="edge">
<title>__main__.Node object at 0x00000159411835B0&#45;&gt;__main__.Node object at 0x0000015941183280</title>
<path fill="none" stroke="black" d="M71.35,-216.76C75.71,-208.28 81.15,-197.71 86.04,-188.2"/>
<polygon fill="black" stroke="black" points="89.23,-189.64 90.7,-179.15 83.01,-186.44 89.23,-189.64"/>
</g>
<!-- __main__.Node object at 0x00000159411831C0 -->
<g id="node8" class="node">
<title>__main__.Node object at 0x00000159411831C0</title>
<ellipse fill="none" stroke="black" cx="99" cy="-90" rx="27" ry="18"/>
<text text-anchor="middle" x="99" y="-86.3" font-family="Times New Roman,serif" font-size="14.00">v</text>
</g>
<!-- __main__.Node object at 0x0000015941183280&#45;&gt;__main__.Node object at 0x00000159411831C0 -->
<g id="edge7" class="edge">
<title>__main__.Node object at 0x0000015941183280&#45;&gt;__main__.Node object at 0x00000159411831C0</title>
<path fill="none" stroke="black" d="M99,-143.7C99,-135.98 99,-126.71 99,-118.11"/>
<polygon fill="black" stroke="black" points="102.5,-118.1 99,-108.1 95.5,-118.1 102.5,-118.1"/>
</g>
<!-- __main__.Node object at 0x0000015941183850 -->
<g id="node10" class="node">
<title>__main__.Node object at 0x0000015941183850</title>
<ellipse fill="none" stroke="black" cx="135" cy="-234" rx="27" ry="18"/>
<text text-anchor="middle" x="135" y="-230.3" font-family="Times New Roman,serif" font-size="14.00">u</text>
</g>
<!-- __main__.Node object at 0x0000015941183310&#45;&gt;__main__.Node object at 0x0000015941183850 -->
<g id="edge9" class="edge">
<title>__main__.Node object at 0x0000015941183310&#45;&gt;__main__.Node object at 0x0000015941183850</title>
<path fill="none" stroke="black" d="M177.02,-289.46C170.02,-280.4 161.06,-268.79 153.21,-258.61"/>
<polygon fill="black" stroke="black" points="155.83,-256.27 146.95,-250.49 150.29,-260.55 155.83,-256.27"/>
</g>
<!-- __main__.Node object at 0x0000015941183EE0 -->
<g id="node11" class="node">
<title>__main__.Node object at 0x0000015941183EE0</title>
<ellipse fill="none" stroke="black" cx="207" cy="-234" rx="27" ry="18"/>
<text text-anchor="middle" x="207" y="-230.3" font-family="Times New Roman,serif" font-size="14.00">i</text>
</g>
<!-- __main__.Node object at 0x0000015941183310&#45;&gt;__main__.Node object at 0x0000015941183EE0 -->
<g id="edge10" class="edge">
<title>__main__.Node object at 0x0000015941183310&#45;&gt;__main__.Node object at 0x0000015941183EE0</title>
<path fill="none" stroke="black" d="M193.36,-288.05C195.39,-280.14 197.86,-270.54 200.14,-261.69"/>
<polygon fill="black" stroke="black" points="203.58,-262.35 202.68,-251.79 196.8,-260.6 203.58,-262.35"/>
</g>
<!-- __main__.Node object at 0x0000015941183040 -->
<g id="node12" class="node">
<title>__main__.Node object at 0x0000015941183040</title>
<ellipse fill="none" stroke="black" cx="207" cy="-162" rx="27" ry="18"/>
<text text-anchor="middle" x="207" y="-158.3" font-family="Times New Roman,serif" font-size="14.00">z</text>
</g>
<!-- __main__.Node object at 0x0000015941183EE0&#45;&gt;__main__.Node object at 0x0000015941183040 -->
<g id="edge11" class="edge">
<title>__main__.Node object at 0x0000015941183EE0&#45;&gt;__main__.Node object at 0x0000015941183040</title>
<path fill="none" stroke="black" d="M207,-215.7C207,-207.98 207,-198.71 207,-190.11"/>
<polygon fill="black" stroke="black" points="210.5,-190.1 207,-180.1 203.5,-190.1 210.5,-190.1"/>
</g>
<!-- __main__.Node object at 0x000001594116DA60 -->
<g id="node14" class="node">
<title>__main__.Node object at 0x000001594116DA60</title>
<ellipse fill="none" stroke="black" cx="315" cy="-306" rx="27" ry="18"/>
<text text-anchor="middle" x="315" y="-302.3" font-family="Times New Roman,serif" font-size="14.00">h</text>
</g>
<!-- __main__.Node object at 0x000001594116DA00&#45;&gt;__main__.Node object at 0x000001594116DA60 -->
<g id="edge13" class="edge">
<title>__main__.Node object at 0x000001594116DA00&#45;&gt;__main__.Node object at 0x000001594116DA60</title>
<path fill="none" stroke="black" d="M315,-359.7C315,-351.98 315,-342.71 315,-334.11"/>
<polygon fill="black" stroke="black" points="318.5,-334.1 315,-324.1 311.5,-334.1 318.5,-334.1"/>
</g>
<!-- __main__.Node object at 0x000001594116DDC0 -->
<g id="node20" class="node">
<title>__main__.Node object at 0x000001594116DDC0</title>
<ellipse fill="none" stroke="black" cx="423" cy="-306" rx="27" ry="18"/>
<text text-anchor="middle" x="423" y="-302.3" font-family="Times New Roman,serif" font-size="14.00">f</text>
</g>
<!-- __main__.Node object at 0x000001594116DA00&#45;&gt;__main__.Node object at 0x000001594116DDC0 -->
<g id="edge19" class="edge">
<title>__main__.Node object at 0x000001594116DA00&#45;&gt;__main__.Node object at 0x000001594116DDC0</title>
<path fill="none" stroke="black" d="M333.81,-364.81C351,-353.67 376.62,-337.06 395.99,-324.5"/>
<polygon fill="black" stroke="black" points="397.92,-327.43 404.4,-319.05 394.11,-321.56 397.92,-327.43"/>
</g>
<!-- __main__.Node object at 0x000001594116DD00 -->
<g id="node15" class="node">
<title>__main__.Node object at 0x000001594116DD00</title>
<ellipse fill="none" stroke="black" cx="279" cy="-234" rx="27" ry="18"/>
<text text-anchor="middle" x="279" y="-230.3" font-family="Times New Roman,serif" font-size="14.00">d</text>
</g>
<!-- __main__.Node object at 0x000001594116DA60&#45;&gt;__main__.Node object at 0x000001594116DD00 -->
<g id="edge14" class="edge">
<title>__main__.Node object at 0x000001594116DA60&#45;&gt;__main__.Node object at 0x000001594116DD00</title>
<path fill="none" stroke="black" d="M306.65,-288.76C302.29,-280.28 296.85,-269.71 291.96,-260.2"/>
<polygon fill="black" stroke="black" points="294.99,-258.44 287.3,-251.15 288.77,-261.64 294.99,-258.44"/>
</g>
<!-- __main__.Node object at 0x000001594116DD90 -->
<g id="node16" class="node">
<title>__main__.Node object at 0x000001594116DD90</title>
<ellipse fill="none" stroke="black" cx="351" cy="-234" rx="27" ry="18"/>
<text text-anchor="middle" x="351" y="-230.3" font-family="Times New Roman,serif" font-size="14.00">b</text>
</g>
<!-- __main__.Node object at 0x000001594116DA60&#45;&gt;__main__.Node object at 0x000001594116DD90 -->
<g id="edge15" class="edge">
<title>__main__.Node object at 0x000001594116DA60&#45;&gt;__main__.Node object at 0x000001594116DD90</title>
<path fill="none" stroke="black" d="M323.35,-288.76C327.71,-280.28 333.15,-269.71 338.04,-260.2"/>
<polygon fill="black" stroke="black" points="341.23,-261.64 342.7,-251.15 335.01,-258.44 341.23,-261.64"/>
</g>
<!-- __main__.Node object at 0x000001594116DDF0 -->
<g id="node17" class="node">
<title>__main__.Node object at 0x000001594116DDF0</title>
<ellipse fill="none" stroke="black" cx="351" cy="-162" rx="27" ry="18"/>
<text text-anchor="middle" x="351" y="-158.3" font-family="Times New Roman,serif" font-size="14.00">a</text>
</g>
<!-- __main__.Node object at 0x000001594116DD90&#45;&gt;__main__.Node object at 0x000001594116DDF0 -->
<g id="edge16" class="edge">
<title>__main__.Node object at 0x000001594116DD90&#45;&gt;__main__.Node object at 0x000001594116DDF0</title>
<path fill="none" stroke="black" d="M351,-215.7C351,-207.98 351,-198.71 351,-190.11"/>
<polygon fill="black" stroke="black" points="354.5,-190.1 351,-180.1 347.5,-190.1 354.5,-190.1"/>
</g>
<!-- __main__.Node object at 0x000001594116D880 -->
<g id="node18" class="node">
<title>__main__.Node object at 0x000001594116D880</title>
<ellipse fill="none" stroke="black" cx="315" cy="-90" rx="27" ry="18"/>
<text text-anchor="middle" x="315" y="-86.3" font-family="Times New Roman,serif" font-size="14.00">g</text>
</g>
<!-- __main__.Node object at 0x000001594116DDF0&#45;&gt;__main__.Node object at 0x000001594116D880 -->
<g id="edge17" class="edge">
<title>__main__.Node object at 0x000001594116DDF0&#45;&gt;__main__.Node object at 0x000001594116D880</title>
<path fill="none" stroke="black" d="M342.65,-144.76C338.29,-136.28 332.85,-125.71 327.96,-116.2"/>
<polygon fill="black" stroke="black" points="330.99,-114.44 323.3,-107.15 324.77,-117.64 330.99,-114.44"/>
</g>
<!-- __main__.Node object at 0x000001594116D9A0 -->
<g id="node19" class="node">
<title>__main__.Node object at 0x000001594116D9A0</title>
<ellipse fill="none" stroke="black" cx="387" cy="-90" rx="27" ry="18"/>
<text text-anchor="middle" x="387" y="-86.3" font-family="Times New Roman,serif" font-size="14.00">s</text>
</g>
<!-- __main__.Node object at 0x000001594116DDF0&#45;&gt;__main__.Node object at 0x000001594116D9A0 -->
<g id="edge18" class="edge">
<title>__main__.Node object at 0x000001594116DDF0&#45;&gt;__main__.Node object at 0x000001594116D9A0</title>
<path fill="none" stroke="black" d="M359.35,-144.76C363.71,-136.28 369.15,-125.71 374.04,-116.2"/>
<polygon fill="black" stroke="black" points="377.23,-117.64 378.7,-107.15 371.01,-114.44 377.23,-117.64"/>
</g>
<!-- __main__.Node object at 0x000001594116DFA0 -->
<g id="node21" class="node">
<title>__main__.Node object at 0x000001594116DFA0</title>
<ellipse fill="none" stroke="black" cx="423" cy="-234" rx="27" ry="18"/>
<text text-anchor="middle" x="423" y="-230.3" font-family="Times New Roman,serif" font-size="14.00">e</text>
</g>
<!-- __main__.Node object at 0x000001594116DDC0&#45;&gt;__main__.Node object at 0x000001594116DFA0 -->
<g id="edge20" class="edge">
<title>__main__.Node object at 0x000001594116DDC0&#45;&gt;__main__.Node object at 0x000001594116DFA0</title>
<path fill="none" stroke="black" d="M423,-287.7C423,-279.98 423,-270.71 423,-262.11"/>
<polygon fill="black" stroke="black" points="426.5,-262.1 423,-252.1 419.5,-262.1 426.5,-262.1"/>
</g>
<!-- __main__.Node object at 0x000001594116DFD0 -->
<g id="node23" class="node">
<title>__main__.Node object at 0x000001594116DFD0</title>
<ellipse fill="none" stroke="black" cx="495" cy="-234" rx="27" ry="18"/>
<text text-anchor="middle" x="495" y="-230.3" font-family="Times New Roman,serif" font-size="14.00">l</text>
</g>
<!-- __main__.Node object at 0x000001594116DDC0&#45;&gt;__main__.Node object at 0x000001594116DFD0 -->
<g id="edge22" class="edge">
<title>__main__.Node object at 0x000001594116DDC0&#45;&gt;__main__.Node object at 0x000001594116DFD0</title>
<path fill="none" stroke="black" d="M437.57,-290.83C447.75,-280.94 461.52,-267.55 473.03,-256.36"/>
<polygon fill="black" stroke="black" points="475.47,-258.87 480.2,-249.38 470.59,-253.85 475.47,-258.87"/>
</g>
<!-- __main__.Node object at 0x000001594116DE80 -->
<g id="node22" class="node">
<title>__main__.Node object at 0x000001594116DE80</title>
<ellipse fill="none" stroke="black" cx="423" cy="-162" rx="27" ry="18"/>
<text text-anchor="middle" x="423" y="-158.3" font-family="Times New Roman,serif" font-size="14.00">w</text>
</g>
<!-- __main__.Node object at 0x000001594116DFA0&#45;&gt;__main__.Node object at 0x000001594116DE80 -->
<g id="edge21" class="edge">
<title>__main__.Node object at 0x000001594116DFA0&#45;&gt;__main__.Node object at 0x000001594116DE80</title>
<path fill="none" stroke="black" d="M423,-215.7C423,-207.98 423,-198.71 423,-190.11"/>
<polygon fill="black" stroke="black" points="426.5,-190.1 423,-180.1 419.5,-190.1 426.5,-190.1"/>
</g>
<!-- __main__.Node object at 0x000001594116DF10 -->
<g id="node24" class="node">
<title>__main__.Node object at 0x000001594116DF10</title>
<ellipse fill="none" stroke="black" cx="495" cy="-162" rx="27" ry="18"/>
<text text-anchor="middle" x="495" y="-158.3" font-family="Times New Roman,serif" font-size="14.00">y</text>
</g>
<!-- __main__.Node object at 0x000001594116DFD0&#45;&gt;__main__.Node object at 0x000001594116DF10 -->
<g id="edge23" class="edge">
<title>__main__.Node object at 0x000001594116DFD0&#45;&gt;__main__.Node object at 0x000001594116DF10</title>
<path fill="none" stroke="black" d="M495,-215.7C495,-207.98 495,-198.71 495,-190.11"/>
<polygon fill="black" stroke="black" points="498.5,-190.1 495,-180.1 491.5,-190.1 498.5,-190.1"/>
</g>
<!-- __main__.Node object at 0x000001594116D6D0 -->
<g id="node25" class="node">
<title>__main__.Node object at 0x000001594116D6D0</title>
<ellipse fill="none" stroke="black" cx="495" cy="-90" rx="27" ry="18"/>
<text text-anchor="middle" x="495" y="-86.3" font-family="Times New Roman,serif" font-size="14.00">n</text>
</g>
<!-- __main__.Node object at 0x000001594116DF10&#45;&gt;__main__.Node object at 0x000001594116D6D0 -->
<g id="edge24" class="edge">
<title>__main__.Node object at 0x000001594116DF10&#45;&gt;__main__.Node object at 0x000001594116D6D0</title>
<path fill="none" stroke="black" d="M495,-143.7C495,-135.98 495,-126.71 495,-118.11"/>
<polygon fill="black" stroke="black" points="498.5,-118.1 495,-108.1 491.5,-118.1 498.5,-118.1"/>
</g>
<!-- __main__.Node object at 0x000001594116DA90 -->
<g id="node26" class="node">
<title>__main__.Node object at 0x000001594116DA90</title>
<ellipse fill="none" stroke="black" cx="495" cy="-18" rx="27" ry="18"/>
<text text-anchor="middle" x="495" y="-14.3" font-family="Times New Roman,serif" font-size="14.00">x</text>
</g>
<!-- __main__.Node object at 0x000001594116D6D0&#45;&gt;__main__.Node object at 0x000001594116DA90 -->
<g id="edge25" class="edge">
<title>__main__.Node object at 0x000001594116D6D0&#45;&gt;__main__.Node object at 0x000001594116DA90</title>
<path fill="none" stroke="black" d="M495,-71.7C495,-63.98 495,-54.71 495,-46.11"/>
<polygon fill="black" stroke="black" points="498.5,-46.1 495,-36.1 491.5,-46.1 498.5,-46.1"/>
</g>
</g>
</svg>
